<!-- Generated by IcoMoon.io -->
<svg version="1.1" xmlns="http://www.w3.org/2000/svg" width="32" height="32" viewBox="0 0 32 32">
<title>email-svgrepo-com</title>
<path fill="#e5dcc6" d="M25.030 20.009l-7.468-0.044-0.023-3.813c1.309 0 2.556 0 3.633 0l3.857 3.857z"></path>
<path fill="#e5dcc6" d="M13.016 24.511l0.045 7.469-7.513-7.513z"></path>
<path fill="#e5dcc6" d="M25.031 20.010l-11.97 11.97-0.045-7.469 4.574 0.028-0.028-4.574h0.001l7.467 0.044z"></path>
<path fill="#fcf4de" d="M17.562 19.964l0.028 4.574-12.042-0.072 8.315-8.315c1.225 0 2.478 0 3.677 0l0.023 3.813z"></path>
<path fill="#88c9b3" d="M6.7 6.647c0.679-3.767 3.972-6.626 7.934-6.626 2.85 0 5.352 1.479 6.787 3.71 0.941-0.515 2.021-0.808 3.17-0.808 3.653 0 6.614 2.961 6.614 6.614s-2.961 6.614-6.614 6.614c-0.45 0-1.725 0-3.417 0-1.077 0-2.324 0-3.633 0-1.199 0-2.452 0-3.677 0-3.911 0-7.541 0-8.253 0-2.659 0-4.815-2.155-4.815-4.816s2.155-4.815 4.815-4.815c0.375 0 0.739 0.044 1.089 0.125z"></path>
</svg>
