<!-- Generated by IcoMoon.io -->
<svg version="1.1" xmlns="http://www.w3.org/2000/svg" width="32" height="32" viewBox="0 0 32 32">
<title>key-password-svgrepo-com</title>
<path fill="#ff7474" d="M11.702 9.492c0-0.922-0.705-1.627-1.627-1.627s-1.627 0.705-1.627 1.627 0.705 1.627 1.627 1.627 1.627-0.705 1.627-1.627zM18.21 5.695c0 4.393-0.488 7.756-0.814 9.546-0.163 0.868-0.271 1.302-0.271 1.302s-0.488 0.108-1.356 0.217c-1.953 0.325-5.749 0.868-9.492 0.868-3.254 0-5.424-2.441-5.424-5.424s2.441-5.424 5.424-5.424h1.085v-1.085c0-2.983 2.441-5.424 5.424-5.424s5.424 2.169 5.424 5.424z"></path>
<path fill="#f2edda" d="M17.451 15.241l13.776 13.776-2.712 2.712-3.254-1.085-1.085-3.254 1.085-1.085-9.492-9.437v-0.054c0.814-0.163 1.356-0.217 1.356-0.217s0.108-0.542 0.325-1.356v0z"></path>
<path fill="#51565f" d="M28.515 32c-0.054 0-0.163 0-0.217-0.054-0.108-0.108-0.108-0.271 0-0.38l2.495-2.495-11.986-11.987c-0.108-0.108-0.108-0.271 0-0.38s0.271-0.108 0.38 0l12.149 12.149c0.108 0.108 0.108 0.271 0 0.38l-2.712 2.712c0.054 0.054-0.054 0.054-0.108 0.054zM25.261 30.915c-0.054 0-0.163 0-0.217-0.054-0.108-0.108-0.108-0.271 0-0.38l1.953-1.953-1.79-1.79-0.868 0.868c-0.108 0.108-0.271 0.108-0.38 0-0.054-0.054-0.054-0.108-0.054-0.217s0-0.163 0.054-0.217l0.868-0.868-7.647-7.647c-0.054-0.054-0.054-0.108-0.054-0.217s0-0.163 0.054-0.217c0.108-0.108 0.271-0.108 0.38 0l10.793 10.793c0.054 0.054 0.054 0.108 0.054 0.217s0 0.163-0.054 0.217c-0.108 0.108-0.271 0.108-0.38 0l-0.597-0.597-1.953 1.953c0 0.108-0.108 0.108-0.163 0.108zM6.278 17.898c-3.308 0-5.695-2.386-5.695-5.695 0-3.146 2.549-5.695 5.695-5.695h0.814v-0.814c0-3.146 2.549-5.695 5.695-5.695 3.308 0 5.695 2.386 5.695 5.695 0 6.454-1.085 10.847-1.085 10.902 0 0.108-0.108 0.163-0.217 0.217-0.054 0-5.532 1.085-10.902 1.085zM6.278 7.051c-2.82 0-5.153 2.332-5.153 5.153 0 2.983 2.169 5.153 5.153 5.153 4.827 0 9.654-0.868 10.63-1.030 0.217-0.868 1.031-4.936 1.031-10.631 0-2.983-2.169-5.153-5.153-5.153-2.82 0-5.153 2.332-5.153 5.153v1.085c0 0.163-0.109 0.271-0.271 0.271h-1.085zM10.075 11.39c-1.030 0-1.898-0.868-1.898-1.898s0.868-1.898 1.898-1.898 1.898 0.868 1.898 1.898-0.868 1.898-1.898 1.898zM10.075 8.136c-0.759 0-1.356 0.597-1.356 1.356s0.597 1.356 1.356 1.356 1.356-0.597 1.356-1.356c0-0.759-0.597-1.356-1.356-1.356z"></path>
</svg>
