<!-- Generated by IcoMoon.io -->
<svg version="1.1" xmlns="http://www.w3.org/2000/svg" width="32" height="32" viewBox="0 0 32 32">
<title>user-svgrepo-com</title>
<path fill="#533016" d="M24 9.084v8.916c0 0.553-0.447 1.001-1 1.001h-14c-0.552 0-1-0.448-1-1.001v-8.916h16z"></path>
<path fill="#efc75e" d="M6 26.667c0-5.891 4.477-11.667 10-11.667 5.522 0 10 5.776 10 11.667v1.777c0 1.963-1.628 3.556-3.637 3.556h-12.726c-2.009 0-3.637-1.593-3.637-3.556 0 0 0-1.777 0-1.777z"></path>
<path fill="#e2574c" d="M15.998 23.534c-1.034-2.424-3.973-1.858-3.993 0.955-0.010 1.545 1.4 2.123 2.339 2.74 0.911 0.6 1.559 1.419 1.66 1.768 0.087-0.342 0.808-1.186 1.652-1.784 0.922-0.656 2.35-1.195 2.338-2.74-0.019-2.821-3.010-3.266-3.996-0.939z"></path>
<path fill="#cc9175" d="M16 1c4.418 0 8 3.582 8 8s-3.582 8-8 8-8-3.583-8-8c0-4.418 3.582-8 8-8z"></path>
<path fill="#533016" d="M14.686 0.106l-0.216 0.030-0.536 0.118-0.209 0.049-0.394 0.123-0.388 0.132-0.143 0.058c-2.456 1.007-4.262 3.211-4.693 6.286 0.555 0.057 1.121 0.098 1.705 0.098 2.935 0 5.559-0.728 7.312-1.871 1.646 1.073 4.062 1.771 6.778 1.854-0.57-4.35-3.885-6.983-7.902-6.983-0.263 0-0.523 0.013-0.78 0.036l-0.534 0.070z"></path>
<path fill="#88542d" d="M19 8c-0.553 0-1 0.448-1 1s0.447 1 1 1 1-0.448 1-1c-0-0.552-0.447-1-1-1zM14 9c0-0.552-0.448-1-1-1s-1 0.448-1 1c0 0.552 0.448 1 1 1s1-0.447 1-1zM18.607 12.032c-0.216 0-0.394 0.195-0.421 0.448-0.038 0.059-0.158 0.185-0.372 0.304-0.248 0.137-1.564 0.185-1.814 0.185s-1.629-0.048-1.876-0.185c-0.215-0.119-0.304-0.276-0.342-0.335-0.027-0.253-0.205-0.449-0.42-0.449-0.234 0-0.424 0.231-0.424 0.516 0 0.822 1.060 1.484 3.062 1.484 2.007-0.062 3.031-0.63 3.031-1.453 0-0.284-0.189-0.515-0.424-0.515z"></path>
</svg>
